{
	"asset":{
		"generator":"Khronos glTF Blender I/O v4.0.44",
		"version":"2.0"
	},
	"scene":0,
	"scenes":[
		{
			"name":"Scene",
			"nodes":[
				0
			]
		}
	],
	"nodes":[
		{
			"mesh":0,
			"name":"656411623.KOPE 80 Soviet Tenement",
			"rotation":[
				0.7071068286895752,
				0,
				0,
				0.7071068286895752
			]
		}
	],
	"materials":[
		{
			"doubleSided":true,
			"emissiveTexture":{
				"index":0
			},
			"name":"Material.003",
			"normalTexture":{
				"index":1
			},
			"pbrMetallicRoughness":{
				"baseColorTexture":{
					"index":2
				},
				"metallicFactor":0,
				"roughnessFactor":0.5
			}
		}
	],
	"meshes":[
		{
			"name":"656411623.KOPE 80 Soviet Tenement",
			"primitives":[
				{
					"attributes":{
						"POSITION":0,
						"NORMAL":1,
						"TEXCOORD_0":2
					},
					"indices":3,
					"material":0
				}
			]
		}
	],
	"textures":[
		{
			"sampler":0,
			"source":0
		},
		{
			"sampler":0,
			"source":1
		},
		{
			"sampler":0,
			"source":2
		}
	],
	"images":[
		{
			"mimeType":"image/png",
			"name":"656411623.KOPE 80 Soviet Tenement_s",
			"uri":"656411623_KOPE%2080%20Soviet%20Tenement_s.png"
		},
		{
			"mimeType":"image/png",
			"name":"656411623.KOPE 80 Soviet Tenement_n",
			"uri":"656411623_KOPE%2080%20Soviet%20Tenement_n.png"
		},
		{
			"mimeType":"image/png",
			"name":"656411623.KOPE 80 Soviet Tenement_d",
			"uri":"656411623_KOPE%2080%20Soviet%20Tenement_d.png"
		}
	],
	"accessors":[
		{
			"bufferView":0,
			"componentType":5126,
			"count":1797,
			"max":[
				13.564530372619629,
				7.8173441886901855,
				1
			],
			"min":[
				-15.237970352172852,
				-9.878436088562012,
				-69.94999694824219
			],
			"type":"VEC3"
		},
		{
			"bufferView":1,
			"componentType":5126,
			"count":1797,
			"type":"VEC3"
		},
		{
			"bufferView":2,
			"componentType":5126,
			"count":1797,
			"type":"VEC2"
		},
		{
			"bufferView":3,
			"componentType":5123,
			"count":2901,
			"type":"SCALAR"
		}
	],
	"bufferViews":[
		{
			"buffer":0,
			"byteLength":21564,
			"byteOffset":0,
			"target":34962
		},
		{
			"buffer":0,
			"byteLength":21564,
			"byteOffset":21564,
			"target":34962
		},
		{
			"buffer":0,
			"byteLength":14376,
			"byteOffset":43128,
			"target":34962
		},
		{
			"buffer":0,
			"byteLength":5802,
			"byteOffset":57504,
			"target":34963
		}
	],
	"samplers":[
		{
			"magFilter":9729,
			"minFilter":9987
		}
	],
	"buffers":[
		{
			"byteLength":63308,
			"uri":"model.bin"
		}
	]
}
