{
	"asset":{
		"generator":"Khronos glTF Blender I/O v4.0.44",
		"version":"2.0"
	},
	"scene":0,
	"scenes":[
		{
			"name":"Scene",
			"nodes":[
				0
			]
		}
	],
	"nodes":[
		{
			"mesh":0,
			"name":"656409882.II-57-17 Soviet tenement",
			"rotation":[
				0.7071068286895752,
				0,
				0,
				0.7071068286895752
			]
		}
	],
	"materials":[
		{
			"doubleSided":true,
			"emissiveTexture":{
				"index":0
			},
			"name":"Material.002",
			"normalTexture":{
				"index":1
			},
			"pbrMetallicRoughness":{
				"baseColorTexture":{
					"index":2
				},
				"metallicFactor":0,
				"roughnessFactor":0.5
			}
		}
	],
	"meshes":[
		{
			"name":"656409882.II-57-17 Soviet tenement",
			"primitives":[
				{
					"attributes":{
						"POSITION":0,
						"NORMAL":1,
						"TEXCOORD_0":2
					},
					"indices":3,
					"material":0
				}
			]
		}
	],
	"textures":[
		{
			"sampler":0,
			"source":0
		},
		{
			"sampler":0,
			"source":1
		},
		{
			"sampler":0,
			"source":2
		}
	],
	"images":[
		{
			"mimeType":"image/png",
			"name":"656409882.II-57-17 Soviet tenement_s",
			"uri":"656409882_II-57-17%20Soviet%20tenement_s.png"
		},
		{
			"mimeType":"image/png",
			"name":"656409882.II-57-17 Soviet tenement_n",
			"uri":"656409882_II-57-17%20Soviet%20tenement_n.png"
		},
		{
			"mimeType":"image/png",
			"name":"656409882.II-57-17 Soviet tenement_d",
			"uri":"656409882_II-57-17%20Soviet%20tenement_d.png"
		}
	],
	"accessors":[
		{
			"bufferView":0,
			"componentType":5126,
			"count":5703,
			"max":[
				15.997810363769531,
				7.499961853027344,
				1
			],
			"min":[
				-16.00132942199707,
				-7.55539083480835,
				-52.52497863769531
			],
			"type":"VEC3"
		},
		{
			"bufferView":1,
			"componentType":5126,
			"count":5703,
			"type":"VEC3"
		},
		{
			"bufferView":2,
			"componentType":5126,
			"count":5703,
			"type":"VEC2"
		},
		{
			"bufferView":3,
			"componentType":5123,
			"count":10278,
			"type":"SCALAR"
		}
	],
	"bufferViews":[
		{
			"buffer":0,
			"byteLength":68436,
			"byteOffset":0,
			"target":34962
		},
		{
			"buffer":0,
			"byteLength":68436,
			"byteOffset":68436,
			"target":34962
		},
		{
			"buffer":0,
			"byteLength":45624,
			"byteOffset":136872,
			"target":34962
		},
		{
			"buffer":0,
			"byteLength":20556,
			"byteOffset":182496,
			"target":34963
		}
	],
	"samplers":[
		{
			"magFilter":9729,
			"minFilter":9987
		}
	],
	"buffers":[
		{
			"byteLength":203052,
			"uri":"model.bin"
		}
	]
}
