{
	"asset":{
		"generator":"Khronos glTF Blender I/O v4.0.44",
		"version":"2.0"
	},
	"extensionsUsed":[
		"KHR_materials_specular",
		"KHR_materials_ior"
	],
	"scene":0,
	"scenes":[
		{
			"name":"Scene",
			"nodes":[
				10
			]
		}
	],
	"nodes":[
		{
			"name":"Materials"
		},
		{
			"name":"__515",
			"rotation":[
				-0.7071068286895752,
				0,
				0,
				0.7071068286895752
			],
			"translation":[
				-40.90289306640625,
				40.71226119995117,
				-8.48574447631836
			]
		},
		{
			"mesh":0,
			"name":"II18_9_Material__30_0",
			"translation":[
				23.226333618164062,
				0.816781759262085,
				11.70720386505127
			]
		},
		{
			"children":[
				2
			],
			"name":"II18_9",
			"rotation":[
				-0.7071068286895752,
				0,
				0,
				0.7071068286895752
			],
			"translation":[
				-23.325607299804688,
				-12.019950866699219,
				-0.19029748439788818
			]
		},
		{
			"name":"II_68_04a",
			"rotation":[
				-0.7071068286895752,
				0,
				0,
				0.7071068286895752
			],
			"translation":[
				-98.37288665771484,
				22.549375534057617,
				-21.785993576049805
			]
		},
		{
			"name":"II_68_04b",
			"rotation":[
				-0.7071068286895752,
				0,
				0,
				0.7071068286895752
			],
			"translation":[
				-27.535812377929688,
				22.41475486755371,
				-21.785993576049805
			]
		},
		{
			"children":[
				1,
				3,
				4,
				5
			],
			"name":"RootNode"
		},
		{
			"children":[
				6
			],
			"name":"_15_FBX",
			"rotation":[
				0.7071068286895752,
				0,
				0,
				0.7071068286895752
			]
		},
		{
			"children":[
				7
			],
			"name":"Sketchfab_model",
			"rotation":[
				-0.7071068286895752,
				0,
				0,
				0.7071068286895752
			]
		},
		{
			"children":[
				8
			],
			"name":"Meshes",
			"scale":[
				6.378551006317139,
				6.378551483154297,
				6.378551483154297
			]
		},
		{
			"children":[
				0,
				9
			],
			"name":"scene",
			"rotation":[
				0.7071068286895752,
				0,
				0,
				0.7071068286895752
			],
			"scale":[
				0.27225014567375183,
				0.2722501754760742,
				0.2722501754760742
			]
		}
	],
	"materials":[
		{
			"doubleSided":true,
			"extensions":{
				"KHR_materials_specular":{
					"specularColorTexture":{
						"index":0
					}
				},
				"KHR_materials_ior":{
					"ior":1.4500000476837158
				}
			},
			"name":"Material_30.001",
			"pbrMetallicRoughness":{
				"baseColorTexture":{
					"index":1
				},
				"metallicFactor":0,
				"roughnessFactor":0.5
			}
		}
	],
	"meshes":[
		{
			"name":"II18_9_Material__30_0",
			"primitives":[
				{
					"attributes":{
						"POSITION":0,
						"NORMAL":1,
						"TEXCOORD_0":2
					},
					"indices":3,
					"material":0
				}
			]
		}
	],
	"textures":[
		{
			"sampler":0,
			"source":0
		},
		{
			"sampler":0,
			"source":1
		}
	],
	"images":[
		{
			"mimeType":"image/jpeg",
			"name":"Material_30_specularGlossiness_spec",
			"uri":"Material_30_specularGlossiness_spec.jpg"
		},
		{
			"mimeType":"image/jpeg",
			"name":"Material_30_diffuse",
			"uri":"Material_30_diffuse.jpg"
		}
	],
	"accessors":[
		{
			"bufferView":0,
			"componentType":5126,
			"count":11802,
			"max":[
				14.71467399597168,
				31.645116806030273,
				8.826735496520996
			],
			"min":[
				-14.619620323181152,
				-0.9644351005554199,
				-8.141754150390625
			],
			"type":"VEC3"
		},
		{
			"bufferView":1,
			"componentType":5126,
			"count":11802,
			"type":"VEC3"
		},
		{
			"bufferView":2,
			"componentType":5126,
			"count":11802,
			"type":"VEC2"
		},
		{
			"bufferView":3,
			"componentType":5123,
			"count":16554,
			"type":"SCALAR"
		}
	],
	"bufferViews":[
		{
			"buffer":0,
			"byteLength":141624,
			"byteOffset":0,
			"target":34962
		},
		{
			"buffer":0,
			"byteLength":141624,
			"byteOffset":141624,
			"target":34962
		},
		{
			"buffer":0,
			"byteLength":94416,
			"byteOffset":283248,
			"target":34962
		},
		{
			"buffer":0,
			"byteLength":33108,
			"byteOffset":377664,
			"target":34963
		}
	],
	"samplers":[
		{
			"magFilter":9729,
			"minFilter":9987
		}
	],
	"buffers":[
		{
			"byteLength":410772,
			"uri":"model.bin"
		}
	]
}
