{
	"asset":{
		"generator":"Khronos glTF Blender I/O v4.0.44",
		"version":"2.0"
	},
	"scene":0,
	"scenes":[
		{
			"name":"Scene",
			"nodes":[
				0,
				1,
				2,
				16
			]
		}
	],
	"nodes":[
		{
			"name":"__515",
			"rotation":[
				-0.7071068286895752,
				0,
				0,
				0.7071068286895752
			],
			"translation":[
				25.256439208984375,
				76.10614013671875,
				-10.391565322875977
			]
		},
		{
			"name":"II18_12",
			"rotation":[
				-0.7071068286895752,
				0,
				0,
				0.7071068286895752
			],
			"translation":[
				89.87092590332031,
				26.500167846679688,
				-17.044950485229492
			]
		},
		{
			"name":"II_68_04a",
			"rotation":[
				-0.7071068286895752,
				0,
				0,
				0.7071068286895752
			],
			"translation":[
				-98.37289428710938,
				22.54937744140625,
				-21.785993576049805
			]
		},
		{
			"name":"Materials"
		},
		{
			"name":"__515.001",
			"rotation":[
				-0.70710688829422,
				0,
				0,
				0.7071066498756409
			],
			"translation":[
				25.256437301635742,
				76.10612487792969,
				-10.39156436920166
			]
		},
		{
			"name":"II18_12.001",
			"rotation":[
				-0.70710688829422,
				0,
				0,
				0.7071066498756409
			],
			"translation":[
				89.87091827392578,
				26.500167846679688,
				-17.044946670532227
			]
		},
		{
			"name":"II18_9",
			"rotation":[
				-0.70710688829422,
				0,
				0,
				0.7071066498756409
			],
			"translation":[
				42.83372116088867,
				23.373920440673828,
				-2.096118927001953
			]
		},
		{
			"name":"II_68_03LOD012",
			"rotation":[
				-0.70710688829422,
				0,
				0,
				0.7071066498756409
			],
			"translation":[
				2.565734624862671,
				-44.79604721069336,
				-26.103376388549805
			]
		},
		{
			"mesh":0,
			"name":"II_68_04a_Material__30_0",
			"translation":[
				62.88518142700195,
				0,
				-22.292625427246094
			]
		},
		{
			"children":[
				8
			],
			"name":"II_68_04a.001",
			"rotation":[
				-0.70710688829422,
				0,
				0,
				0.7071066498756409
			],
			"translation":[
				-98.37288665771484,
				22.54937171936035,
				-21.78598976135254
			]
		},
		{
			"mesh":1,
			"name":"II_68_04b_Material__30_0",
			"translation":[
				62.88517761230469,
				0,
				-22.29262924194336
			]
		},
		{
			"children":[
				10
			],
			"name":"II_68_04b",
			"rotation":[
				-0.70710688829422,
				0,
				0,
				0.7071066498756409
			],
			"translation":[
				-27.535812377929688,
				22.414752960205078,
				-21.78598976135254
			]
		},
		{
			"children":[
				4,
				5,
				6,
				7,
				9,
				11
			],
			"name":"RootNode"
		},
		{
			"children":[
				12
			],
			"name":"_15_FBX",
			"rotation":[
				0.70710688829422,
				0,
				0,
				0.7071066498756409
			]
		},
		{
			"children":[
				13
			],
			"name":"Sketchfab_model",
			"rotation":[
				-0.70710688829422,
				0,
				0,
				0.7071066498756409
			]
		},
		{
			"children":[
				14
			],
			"name":"Meshes",
			"scale":[
				6.378551006317139,
				6.378551006317139,
				6.378551006317139
			]
		},
		{
			"children":[
				3,
				15
			],
			"name":"scene",
			"rotation":[
				0.7071066498756409,
				0,
				0,
				0.7071069478988647
			],
			"scale":[
				0.22277501225471497,
				0.22277504205703735,
				0.22277504205703735
			]
		}
	],
	"materials":[
		{
			"doubleSided":true,
			"emissiveFactor":[
				0.40000003576278687,
				0.40000003576278687,
				0.40000003576278687
			],
			"emissiveTexture":{
				"index":0
			},
			"name":"Material_30.001",
			"pbrMetallicRoughness":{
				"baseColorTexture":{
					"index":1
				},
				"metallicFactor":0,
				"roughnessFactor":0.5
			}
		}
	],
	"meshes":[
		{
			"name":"II_68_04a_Material__30_0.001",
			"primitives":[
				{
					"attributes":{
						"POSITION":0,
						"NORMAL":1,
						"TEXCOORD_0":2
					},
					"indices":3,
					"material":0
				}
			]
		},
		{
			"name":"II_68_04b_Material__30_0.001",
			"primitives":[
				{
					"attributes":{
						"POSITION":4,
						"NORMAL":5,
						"TEXCOORD_0":6
					},
					"indices":7,
					"material":0
				}
			]
		}
	],
	"textures":[
		{
			"sampler":0,
			"source":0
		},
		{
			"sampler":0,
			"source":1
		}
	],
	"images":[
		{
			"mimeType":"image/png",
			"name":"Material_30_specularGlossiness",
			"uri":"Material_30_specularGlossiness.png"
		},
		{
			"mimeType":"image/png",
			"name":"Material_30_diffuse",
			"uri":"Material_30_diffuse.png"
		}
	],
	"accessors":[
		{
			"bufferView":0,
			"componentType":5126,
			"count":36460,
			"max":[
				35.4954833984375,
				21.82815170288086,
				14.754232406616211
			],
			"min":[
				-35.49559783935547,
				-21.828174591064453,
				-14.754199981689453
			],
			"type":"VEC3"
		},
		{
			"bufferView":1,
			"componentType":5126,
			"count":36460,
			"type":"VEC3"
		},
		{
			"bufferView":2,
			"componentType":5126,
			"count":36460,
			"type":"VEC2"
		},
		{
			"bufferView":3,
			"componentType":5123,
			"count":57489,
			"type":"SCALAR"
		},
		{
			"bufferView":4,
			"componentType":5126,
			"count":36460,
			"max":[
				35.43431091308594,
				21.828155517578125,
				14.900848388671875
			],
			"min":[
				-35.434181213378906,
				-21.828170776367188,
				-14.9008207321167
			],
			"type":"VEC3"
		},
		{
			"bufferView":5,
			"componentType":5126,
			"count":36460,
			"type":"VEC3"
		},
		{
			"bufferView":6,
			"componentType":5126,
			"count":36460,
			"type":"VEC2"
		},
		{
			"bufferView":7,
			"componentType":5123,
			"count":57489,
			"type":"SCALAR"
		}
	],
	"bufferViews":[
		{
			"buffer":0,
			"byteLength":437520,
			"byteOffset":0,
			"target":34962
		},
		{
			"buffer":0,
			"byteLength":437520,
			"byteOffset":437520,
			"target":34962
		},
		{
			"buffer":0,
			"byteLength":291680,
			"byteOffset":875040,
			"target":34962
		},
		{
			"buffer":0,
			"byteLength":114978,
			"byteOffset":1166720,
			"target":34963
		},
		{
			"buffer":0,
			"byteLength":437520,
			"byteOffset":1281700,
			"target":34962
		},
		{
			"buffer":0,
			"byteLength":437520,
			"byteOffset":1719220,
			"target":34962
		},
		{
			"buffer":0,
			"byteLength":291680,
			"byteOffset":2156740,
			"target":34962
		},
		{
			"buffer":0,
			"byteLength":114978,
			"byteOffset":2448420,
			"target":34963
		}
	],
	"samplers":[
		{
			"magFilter":9729,
			"minFilter":9987
		}
	],
	"buffers":[
		{
			"byteLength":2563400,
			"uri":"model.bin"
		}
	]
}
