{
	"asset":{
		"generator":"Khronos glTF Blender I/O v4.0.44",
		"version":"2.0"
	},
	"scene":0,
	"scenes":[
		{
			"name":"Scene",
			"nodes":[
				0
			]
		}
	],
	"nodes":[
		{
			"mesh":0,
			"name":"531899368.L1 1-464 Soviet apartment",
			"rotation":[
				0.7071068286895752,
				0,
				0,
				0.7071068286895752
			]
		}
	],
	"materials":[
		{
			"doubleSided":true,
			"emissiveTexture":{
				"index":0
			},
			"name":"Material.001",
			"normalTexture":{
				"index":1
			},
			"pbrMetallicRoughness":{
				"baseColorTexture":{
					"index":2
				},
				"metallicFactor":0,
				"roughnessFactor":0.5
			}
		}
	],
	"meshes":[
		{
			"name":"531899368.L1 1-464 Soviet apartment",
			"primitives":[
				{
					"attributes":{
						"POSITION":0,
						"NORMAL":1,
						"TEXCOORD_0":2
					},
					"indices":3,
					"material":0
				}
			]
		}
	],
	"textures":[
		{
			"sampler":0,
			"source":0
		},
		{
			"sampler":0,
			"source":1
		},
		{
			"sampler":0,
			"source":2
		}
	],
	"images":[
		{
			"mimeType":"image/png",
			"name":"531899368.L1 1-464 Soviet apartment_s",
			"uri":"531899368_L1%201-464%20Soviet%20apartment_s.png"
		},
		{
			"mimeType":"image/png",
			"name":"531899368.L1 1-464 Soviet apartment_n",
			"uri":"531899368_L1%201-464%20Soviet%20apartment_n.png"
		},
		{
			"mimeType":"image/png",
			"name":"531899368.L1 1-464 Soviet apartment_d",
			"uri":"531899368_L1%201-464%20Soviet%20apartment_d.png"
		}
	],
	"accessors":[
		{
			"bufferView":0,
			"componentType":5126,
			"count":2313,
			"max":[
				16.752500534057617,
				7.498281955718994,
				1
			],
			"min":[
				-16.706480026245117,
				-6.865783214569092,
				-16.0621395111084
			],
			"type":"VEC3"
		},
		{
			"bufferView":1,
			"componentType":5126,
			"count":2313,
			"type":"VEC3"
		},
		{
			"bufferView":2,
			"componentType":5126,
			"count":2313,
			"type":"VEC2"
		},
		{
			"bufferView":3,
			"componentType":5123,
			"count":3936,
			"type":"SCALAR"
		}
	],
	"bufferViews":[
		{
			"buffer":0,
			"byteLength":27756,
			"byteOffset":0,
			"target":34962
		},
		{
			"buffer":0,
			"byteLength":27756,
			"byteOffset":27756,
			"target":34962
		},
		{
			"buffer":0,
			"byteLength":18504,
			"byteOffset":55512,
			"target":34962
		},
		{
			"buffer":0,
			"byteLength":7872,
			"byteOffset":74016,
			"target":34963
		}
	],
	"samplers":[
		{
			"magFilter":9729,
			"minFilter":9987
		}
	],
	"buffers":[
		{
			"byteLength":81888,
			"uri":"model.bin"
		}
	]
}
