{
	"asset":{
		"generator":"Khronos glTF Blender I/O v4.0.44",
		"version":"2.0"
	},
	"extensionsUsed":[
		"KHR_materials_specular",
		"KHR_materials_ior"
	],
	"scene":0,
	"scenes":[
		{
			"name":"Scene",
			"nodes":[
				12
			]
		}
	],
	"nodes":[
		{
			"name":"Materials"
		},
		{
			"name":"__515",
			"rotation":[
				-0.7071068286895752,
				0,
				0,
				0.7071068286895752
			],
			"translation":[
				25.256439208984375,
				76.10613250732422,
				-10.391565322875977
			]
		},
		{
			"name":"II18_12",
			"rotation":[
				-0.7071068286895752,
				0,
				0,
				0.7071068286895752
			],
			"translation":[
				89.87092590332031,
				26.500167846679688,
				-17.04494857788086
			]
		},
		{
			"name":"II18_9",
			"rotation":[
				-0.7071068286895752,
				0,
				0,
				0.7071068286895752
			],
			"translation":[
				42.83372497558594,
				23.37392234802246,
				-2.0961191654205322
			]
		},
		{
			"mesh":0,
			"name":"II_68_03LOD012_Material__30_0",
			"translation":[
				0,
				-4.990888595581055,
				44.91797637939453
			]
		},
		{
			"children":[
				4
			],
			"name":"II_68_03LOD012",
			"rotation":[
				-0.7071068286895752,
				0,
				0,
				0.7071068286895752
			],
			"translation":[
				2.56573486328125,
				-44.79604721069336,
				-26.103376388549805
			]
		},
		{
			"name":"II_68_04a",
			"rotation":[
				-0.7071068286895752,
				0,
				0,
				0.7071068286895752
			],
			"translation":[
				-98.37289428710938,
				22.549375534057617,
				-21.785991668701172
			]
		},
		{
			"name":"II_68_04b",
			"rotation":[
				-0.7071068286895752,
				0,
				0,
				0.7071068286895752
			],
			"translation":[
				-27.53581428527832,
				22.41475486755371,
				-21.785991668701172
			]
		},
		{
			"children":[
				1,
				2,
				3,
				5,
				6,
				7
			],
			"name":"RootNode"
		},
		{
			"children":[
				8
			],
			"name":"_15_FBX",
			"rotation":[
				0.7071068286895752,
				0,
				0,
				0.7071068286895752
			]
		},
		{
			"children":[
				9
			],
			"name":"Sketchfab_model",
			"rotation":[
				-0.7071068286895752,
				0,
				0,
				0.7071068286895752
			]
		},
		{
			"children":[
				10
			],
			"name":"Meshes",
			"scale":[
				6.378551006317139,
				6.378551006317139,
				6.378551006317139
			]
		},
		{
			"children":[
				0,
				11
			],
			"name":"scene",
			"rotation":[
				0.7071067690849304,
				0,
				0,
				0.7071068286895752
			],
			"scale":[
				0.22277502715587616,
				0.22277504205703735,
				0.22277504205703735
			]
		}
	],
	"materials":[
		{
			"doubleSided":true,
			"extensions":{
				"KHR_materials_specular":{
					"specularColorTexture":{
						"index":0
					}
				},
				"KHR_materials_ior":{
					"ior":1.4500000476837158
				}
			},
			"name":"Material_30",
			"pbrMetallicRoughness":{
				"baseColorTexture":{
					"index":1
				},
				"metallicFactor":0,
				"roughnessFactor":0.5
			}
		}
	],
	"meshes":[
		{
			"name":"II_68_03LOD012_Material__30_0",
			"primitives":[
				{
					"attributes":{
						"POSITION":0,
						"NORMAL":1,
						"TEXCOORD_0":2
					},
					"indices":3,
					"material":0
				}
			]
		}
	],
	"textures":[
		{
			"sampler":0,
			"source":0
		},
		{
			"sampler":0,
			"source":1
		}
	],
	"images":[
		{
			"mimeType":"image/jpeg",
			"name":"Material_30_specularGlossiness_spec",
			"uri":"Material_30_specularGlossiness_spec.jpg"
		},
		{
			"mimeType":"image/jpeg",
			"name":"Material_30_diffuse",
			"uri":"Material_30_diffuse.jpg"
		}
	],
	"accessors":[
		{
			"bufferView":0,
			"componentType":5126,
			"count":22976,
			"max":[
				95.81875610351562,
				20.887069702148438,
				8.484288215637207
			],
			"min":[
				-95.8251953125,
				-20.91022491455078,
				-8.338348388671875
			],
			"type":"VEC3"
		},
		{
			"bufferView":1,
			"componentType":5126,
			"count":22976,
			"type":"VEC3"
		},
		{
			"bufferView":2,
			"componentType":5126,
			"count":22976,
			"type":"VEC2"
		},
		{
			"bufferView":3,
			"componentType":5123,
			"count":32856,
			"type":"SCALAR"
		}
	],
	"bufferViews":[
		{
			"buffer":0,
			"byteLength":275712,
			"byteOffset":0,
			"target":34962
		},
		{
			"buffer":0,
			"byteLength":275712,
			"byteOffset":275712,
			"target":34962
		},
		{
			"buffer":0,
			"byteLength":183808,
			"byteOffset":551424,
			"target":34962
		},
		{
			"buffer":0,
			"byteLength":65712,
			"byteOffset":735232,
			"target":34963
		}
	],
	"samplers":[
		{
			"magFilter":9729,
			"minFilter":9987
		}
	],
	"buffers":[
		{
			"byteLength":800944,
			"uri":"model.bin"
		}
	]
}
